<svg xmlns="http://www.w3.org/2000/svg" viewBox="0 0 120 80"><defs><style>.cls-1,.cls-2,.cls-3,.cls-4,.cls-5{fill:none;stroke-miterlimit:10;stroke-width:2px;}.cls-1{stroke:#90ebcd;}.cls-2{stroke:#30ba78;}.cls-3{stroke:#2453ff;}.cls-4{stroke:#f3b292;}.cls-5{stroke:#fe7c3f;}</style></defs><g id="active"><rect class="cls-1" x="12" y="56" width="4" height="8"/><polyline class="cls-2" points="8 44 8 64 41 64"/><polyline class="cls-2" points="36 28 20 28 20 44"/><rect class="cls-2" x="18.45" y="24" width="17.55" height="3.97"/><rect class="cls-2" x="4" y="40" width="16" height="3.97"/><rect class="cls-1" x="24" y="32" width="12" height="4"/><rect class="cls-1" x="12" y="48" width="4" height="4"/><rect class="cls-1" x="20" y="48" width="4" height="4"/><rect class="cls-1" x="40" y="16" width="4" height="4"/><rect class="cls-1" x="48" y="16" width="4" height="4"/><rect class="cls-1" x="56" y="16" width="4" height="4"/><rect class="cls-1" x="40" y="24" width="4" height="4"/><rect class="cls-1" x="48" y="24" width="4" height="4"/><rect class="cls-1" x="56" y="24" width="4" height="4"/><rect class="cls-1" x="40" y="32" width="4" height="4"/><rect class="cls-1" x="48" y="32" width="4" height="4"/><rect class="cls-1" x="56" y="32" width="4" height="4"/><polyline class="cls-2" points="64 39.11 64 12 36 12 36 44 24 44"/><path class="cls-3" d="M92,44h19a5,5,0,0,1,5,5V60H96"/><path class="cls-3" d="M67,16H79a5,5,0,0,1,5,5V32"/><path class="cls-3" d="M100,41V37a5,5,0,0,0-5-5H76"/><path class="cls-3" d="M72,52h3a5,5,0,0,1,5,5V68H44V63"/><rect class="cls-2" x="34.48" y="8" width="31.05" height="4"/><path class="cls-3" d="M83,64H96.09V57a5,5,0,0,0-5-5H88"/><path class="cls-3" d="M68,28h3a5,5,0,0,1,5,5v3"/><path class="cls-4" d="M53.92,52h0a2,2,0,1,1,2-2A2,2,0,0,1,53.92,52Z"/><polyline class="cls-5" points="68 40 72 44 68 48"/><polyline class="cls-5" points="40 60 36 56 40 52"/><path class="cls-5" d="M36,56.05H54a6,6,0,0,0,5.92-6,5.93,5.93,0,0,0-1-3.25"/><path class="cls-5" d="M72,44H53.92A6,6,0,0,0,48,50a5.93,5.93,0,0,0,1,3.25"/></g></svg>