<svg xmlns="http://www.w3.org/2000/svg" viewBox="0 0 120 80"><defs><style>.cls-1,.cls-2,.cls-3,.cls-5,.cls-6,.cls-7{fill:none;stroke-miterlimit:10;stroke-width:2px;}.cls-1{stroke:#809af7;}.cls-2{stroke:#fe7c3f;}.cls-3{stroke:#2453ff;}.cls-4{fill:#2453ff;}.cls-5{stroke:#30ba78;}.cls-6{stroke:#90ebcd;}.cls-7{stroke:#c7f1e3;}.cls-8{fill:#30ba78;}.cls-9{fill:#fe7c3f;}</style></defs><g id="active"><line class="cls-1" x1="33" y1="42" x2="33" y2="54"/><line class="cls-1" x1="49.14" y1="40.68" x2="58" y2="50"/><line class="cls-1" x1="58.19" y1="31.63" x2="86" y2="31.63"/><path class="cls-2" d="M34,22.14V17.86H32.3a8.13,8.13,0,0,0-.92-2.21l1.21-1.21-3-3-1.21,1.21a8.13,8.13,0,0,0-2.21-.92V10H21.86v1.7a8.13,8.13,0,0,0-2.21.92l-1.21-1.21-3,3,1.21,1.21a8.13,8.13,0,0,0-.92,2.21H14v4.28h1.7a8.13,8.13,0,0,0,.92,2.21l-1.21,1.21,3,3,1.21-1.21a8.13,8.13,0,0,0,2.21.92V30h4.28m-.32-6.15a4.27,4.27,0,0,1-1.82.43h0a4.29,4.29,0,1,1,3.82-2.46"/><polygon class="cls-3" points="26 22 67.82 22 47.82 42 26 42 26 22"/><circle class="cls-4" cx="33" cy="31.63" r="1.5"/><circle class="cls-4" cx="40.54" cy="31.63" r="1.5"/><circle class="cls-4" cx="48.08" cy="31.63" r="1.5"/><rect class="cls-5" x="98" y="50" width="4" height="8"/><rect class="cls-6" x="86" y="26" width="20" height="32"/><rect class="cls-7" x="90" y="34" width="4" height="4"/><rect class="cls-7" x="98" y="34" width="4" height="4"/><rect class="cls-7" x="90" y="42" width="4" height="4"/><rect class="cls-7" x="98" y="42" width="4" height="4"/><rect class="cls-7" x="90" y="50" width="4" height="4"/><rect class="cls-5" x="32" y="66" width="4" height="4"/><rect class="cls-6" x="26" y="54" width="16" height="12"/><line class="cls-6" x1="28" y1="70" x2="40" y2="70"/><rect class="cls-8" x="33" y="62.12" width="2" height="2"/><polygon class="cls-6" points="74 66 58 66 58 42 66 42 74 42 74 66"/><line class="cls-6" x1="58.28" y1="58" x2="73.15" y2="58"/><line class="cls-5" x1="63.46" y1="62.12" x2="71.3" y2="62.12"/><line class="cls-6" x1="58.28" y1="50" x2="73.15" y2="50"/><rect class="cls-9" x="60.46" y="61.12" width="2" height="2"/><line class="cls-5" x1="63.46" y1="54" x2="71.3" y2="54"/><rect class="cls-9" x="60.46" y="53" width="2" height="2"/><line class="cls-5" x1="63.46" y1="46" x2="71.3" y2="46"/><rect class="cls-9" x="60.46" y="45" width="2" height="2"/></g></svg>