<?xml version="1.0" encoding="utf-8"?>
<!-- Generator: Adobe Illustrator 25.3.1, SVG Export Plug-In . SVG Version: 6.00 Build 0)  -->
<svg version="1.1" xmlns="http://www.w3.org/2000/svg" xmlns:xlink="http://www.w3.org/1999/xlink" x="0px" y="0px"
	 viewBox="0 0 120 80" style="enable-background:new 0 0 120 80;" xml:space="preserve">
<style type="text/css">
	.st0{fill:none;stroke:#0C322C;stroke-width:2;stroke-miterlimit:10;}
	.st1{fill:none;stroke:#0C322C;stroke-width:2;stroke-linecap:round;stroke-miterlimit:10;}
	.st2{fill:none;stroke:#35B777;stroke-width:2;stroke-linecap:round;stroke-miterlimit:10;}
	.st3{fill:none;stroke:#35B777;stroke-width:2;stroke-miterlimit:10;}
	.st4{fill:none;stroke:#F47B42;stroke-width:2;stroke-miterlimit:10;}
	.st5{fill:none;stroke:#9CD6C3;stroke-width:2;stroke-miterlimit:10;}
	.st6{fill:none;stroke:#2453FF;stroke-width:2;stroke-miterlimit:10;}
	.st7{fill:none;stroke:#192072;stroke-width:2;stroke-miterlimit:10;}
	.st8{fill:none;stroke:#9CD6C3;stroke-width:2;stroke-linejoin:round;stroke-miterlimit:10;}
	.st9{fill:none;stroke:#BDCBFF;stroke-width:2;stroke-miterlimit:10;}
	.st10{fill:none;stroke:#F47B42;stroke-width:2;stroke-linejoin:round;}
	.st11{fill:none;stroke:#F47B42;stroke-width:2;stroke-linejoin:round;stroke-dasharray:4,2;}
	.st12{fill:none;stroke:#0C322C;stroke-width:2;stroke-linejoin:round;stroke-miterlimit:10;}
	.st13{fill:none;stroke:#F47B42;stroke-width:2;stroke-linecap:round;stroke-miterlimit:10;}
	.st14{fill:none;stroke:#9CD6C3;stroke-width:2;stroke-miterlimit:10;stroke-dasharray:2,2;}
	.st15{fill:none;stroke:#9CD6C3;stroke-width:2;stroke-miterlimit:10;stroke-dasharray:2.8556,1.9037;}
	.st16{fill:none;stroke:#9CD6C3;stroke-width:2;stroke-miterlimit:10;stroke-dasharray:2.1429,1.4286;}
	.st17{fill:none;stroke:#9CD6C3;stroke-width:2;stroke-miterlimit:10;stroke-dasharray:2.6274,1.7516;}
	.st18{fill:none;stroke:#9CD6C3;stroke-width:1.91;stroke-miterlimit:10;}
	.st19{fill:#2453FF;}
	.st20{fill:#35B777;stroke:#35B777;stroke-width:2;stroke-miterlimit:10;}
</style>
<g id="Layer_2">
</g>
<g id="Layer_1">
	<g>
		<polyline class="st7" points="84,40 104,40 104,28 112,28 		"/>
		<rect x="48" y="60" class="st18" width="8" height="4"/>
		<rect x="72" y="60" class="st18" width="8" height="4"/>
		<polyline class="st7" points="44,40 24,40 24,52 16,52 		"/>
		<polyline class="st7" points="64,60 64,68 76,68 76,76 		"/>
		<polyline class="st7" points="64,20 64,12 52,12 52,4 		"/>
		<polyline class="st7" points="44,28 32,16 20,16 20,20 12,20 		"/>
		<polyline class="st7" points="84,52 96,64 104,64 104,68 112,68 		"/>
		<polyline class="st7" points="84,28 96,16 96,8 		"/>
		<polyline class="st7" points="44,52 32,64 32,72 		"/>
		<circle class="st19" cx="16" cy="52" r="3.1"/>
		<circle class="st19" cx="32" cy="72" r="3.1"/>
		<circle class="st19" cx="12" cy="20" r="3.1"/>
		<circle class="st19" cx="52" cy="4" r="3.1"/>
		<line class="st5" x1="60" y1="24" x2="60" y2="32"/>
		<line class="st5" x1="68.4" y1="31.5" x2="65.6" y2="34.4"/>
		<line class="st5" x1="71.9" y1="40" x2="67.9" y2="40"/>
		<line class="st5" x1="68.4" y1="48.4" x2="65.6" y2="45.6"/>
		<line class="st5" x1="59.9" y1="51.9" x2="59.9" y2="47.9"/>
		<line class="st5" x1="51.5" y1="48.4" x2="54.3" y2="45.6"/>
		<line class="st5" x1="48" y1="39.9" x2="52" y2="39.9"/>
		<line class="st5" x1="51.5" y1="31.5" x2="54.4" y2="34.3"/>
		<rect x="44" y="20" class="st3" width="40" height="40"/>
		<circle class="st20" cx="78.3" cy="38" r="2"/>
		<line class="st3" x1="78.3" y1="47.9" x2="78.3" y2="39.7"/>
		<circle class="st3" cx="60" cy="40.1" r="11.9"/>
		<circle class="st3" cx="60" cy="40.1" r="4.1"/>
		<circle class="st19" cx="112" cy="28" r="3.1"/>
		<circle class="st19" cx="96" cy="8" r="3.1"/>
		<circle class="st19" cx="112" cy="68" r="3.1"/>
		<circle class="st19" cx="76" cy="76" r="3.1"/>
	</g>
</g>
</svg>
