<svg xmlns="http://www.w3.org/2000/svg" viewBox="0 0 120 80"><defs><style>.cls-1{fill:#30ba78;}.cls-2{fill:#90ebcd;}.cls-3{fill:#2453ff;}.cls-4{fill:#0c322c;}</style></defs><g id="Layer_1" data-name="Layer 1"><path class="cls-1" d="M68.11,47.09h-34v-8h34Zm-32-2h30v-4h-30Z"/><path class="cls-1" d="M68.11,56.09h-34v-8h34Zm-32-2h30v-4h-30Z"/><path class="cls-1" d="M68.11,65.09h-34v-8h34Zm-32-2h30v-4h-30Z"/><rect class="cls-2" x="53.11" y="60.09" width="11" height="2"/><rect class="cls-2" x="41.11" y="60.09" width="1.91" height="2"/><rect class="cls-2" x="38.11" y="60.09" width="1.91" height="2"/><rect class="cls-2" x="53.11" y="51.09" width="11" height="2"/><rect class="cls-2" x="41.11" y="51.09" width="1.91" height="2"/><rect class="cls-2" x="38.11" y="51.09" width="1.91" height="2"/><rect class="cls-2" x="53.11" y="42.09" width="11" height="2"/><rect class="cls-2" x="41.11" y="42.09" width="1.91" height="2"/><rect class="cls-2" x="38.11" y="42.09" width="1.91" height="2"/><polygon class="cls-2" points="84.03 45.09 71.11 45.09 71.11 43.09 82.03 43.09 82.03 17.09 60.03 17.09 60.03 36.09 58.03 36.09 58.03 15.09 84.03 15.09 84.03 45.09"/><rect class="cls-1" x="71.03" y="39.09" width="8.86" height="2"/><rect class="cls-1" x="68.03" y="35.09" width="11.86" height="2"/><rect class="cls-1" x="62.03" y="35.09" width="4.12" height="2"/><rect class="cls-1" x="68.03" y="31.09" width="11.86" height="2"/><rect class="cls-1" x="62.03" y="31.09" width="4.12" height="2"/><rect class="cls-1" x="68.03" y="27.09" width="11.86" height="2"/><rect class="cls-1" x="62.03" y="27.09" width="4.12" height="2"/><rect class="cls-1" x="68.03" y="23.09" width="11.86" height="2"/><rect class="cls-1" x="62.03" y="23.09" width="4.12" height="2"/><rect class="cls-1" x="68.03" y="19.09" width="11.86" height="2"/><rect class="cls-1" x="62.03" y="19.09" width="4.12" height="2"/><path class="cls-3" d="M55.11,25.14H33.65V20.09A5.07,5.07,0,0,1,38.71,15h.35V12a5.07,5.07,0,0,1,5.06-5.06H57.64A5.07,5.07,0,0,1,62.7,12v.12h-2V12a3.07,3.07,0,0,0-3.06-3.06H44.12A3.07,3.07,0,0,0,41.06,12V17H38.71a3.06,3.06,0,0,0-3.06,3.06v3.05H55.11Z"/><polygon class="cls-4" points="80.11 73.09 58.11 73.09 58.11 68.09 60.11 68.09 60.11 71.09 78.11 71.09 78.11 48.09 80.11 48.09 80.11 73.09"/><polygon class="cls-4" points="31.11 61.09 26.11 61.09 26.11 19.09 31.11 19.09 31.11 21.09 28.11 21.09 28.11 59.09 31.11 59.09 31.11 61.09"/><rect class="cls-4" x="71.11" y="55.09" width="4" height="2"/><polygon class="cls-4" points="96.11 57.09 83.11 57.09 83.11 55.09 94.11 55.09 94.11 33.09 87.11 33.09 87.11 31.09 96.11 31.09 96.11 57.09"/><polygon class="cls-4" points="44.11 36.09 42.11 36.09 42.11 31.09 55.11 31.09 55.11 33.09 44.11 33.09 44.11 36.09"/></g></svg>