<svg xmlns="http://www.w3.org/2000/svg" viewBox="0 0 120 80"><defs><style>.cls-1,.cls-2,.cls-3,.cls-4,.cls-5,.cls-6,.cls-7,.cls-8,.cls-9{fill:none;stroke-miterlimit:10;stroke-width:2px;}.cls-1,.cls-2,.cls-3,.cls-4,.cls-5{stroke:#f3b292;}.cls-1,.cls-2,.cls-3,.cls-4{stroke-linecap:square;}.cls-2{stroke-dasharray:0.1 3.9;}.cls-3{stroke-dasharray:0.1 4.19;}.cls-4{stroke-dasharray:0.1 3.85;}.cls-6{stroke:#2453ff;}.cls-7{stroke:#c7f1e3;}.cls-8{stroke:#90ebcd;}.cls-9{stroke:#30ba78;}.cls-10{fill:#fe7c3f;}.cls-11{fill:#30ba78;}</style></defs><g id="active"><line class="cls-1" x1="65.31" y1="23.01" x2="65.36" y2="23.01"/><line class="cls-2" x1="69.26" y1="23.01" x2="75.31" y2="23.01"/><line class="cls-1" x1="77.26" y1="23.01" x2="77.31" y2="23.01"/><line class="cls-1" x1="65.03" y1="30.05" x2="65.08" y2="30.05"/><polyline class="cls-3" points="69.27 30.05 81.72 30.05 87.51 33.84"/><line class="cls-1" x1="89.26" y1="34.98" x2="89.31" y2="35.01"/><line class="cls-1" x1="75.41" y1="53.01" x2="75.46" y2="53.01"/><line class="cls-1" x1="79.48" y1="53.01" x2="79.53" y2="53.01"/><line class="cls-1" x1="75" y1="59.01" x2="75.05" y2="59.01"/><polyline class="cls-4" points="78.89 59.03 89.52 67.01 94.04 67.01"/><line class="cls-1" x1="95.97" y1="67.01" x2="96.02" y2="67.01"/><polyline class="cls-5" points="37.31 45.01 54.64 45.01 60.47 50.84"/><polyline class="cls-5" points="33.98 31.01 41.31 31.01 49.31 26.79"/><path class="cls-6" d="M9.31,15V67h44V57a2,2,0,0,0-2-2h-10V49a2,2,0,0,0-2-2h-2V37a2,2,0,0,0-2-2h-2V30a3,3,0,0,0-3-3h-9V21a2,2,0,0,0-2-2h-6V17a2,2,0,0,0-2-2Z"/><line class="cls-7" x1="81.05" y1="26.79" x2="81.05" y2="14.79"/><line class="cls-8" x1="81.05" y1="6.79" x2="81.05" y2="14.79"/><line class="cls-8" x1="74.12" y1="18.79" x2="81.05" y2="14.79"/><line class="cls-8" x1="87.98" y1="18.79" x2="81.05" y2="14.79"/><path class="cls-9" d="M85.05,26.79h0Z"/><rect class="cls-9" x="49.31" y="19.01" width="12" height="12"/><rect class="cls-10" x="57.31" y="24.32" width="2" height="2"/><line class="cls-9" x1="51.66" y1="25.32" x2="55.66" y2="25.32"/><rect class="cls-9" x="60.3" y="47.01" width="12" height="12"/><rect class="cls-10" x="68.3" y="52.32" width="2" height="2"/><line class="cls-9" x1="62.66" y1="53.32" x2="66.66" y2="53.32"/><rect class="cls-8" x="84.52" y="47.32" width="8" height="12"/><rect class="cls-11" x="87.52" y="55.32" width="2" height="2"/><rect class="cls-7" x="92.5" y="21.99" width="4" height="6.79"/><rect class="cls-7" x="96.5" y="23.9" width="4" height="4.87"/><rect class="cls-8" x="92.5" y="28.78" width="16" height="12"/><rect class="cls-11" x="103.69" y="31.78" width="2" height="2"/><rect class="cls-11" x="99.5" y="31.78" width="2" height="2"/><rect class="cls-11" x="99.5" y="35.81" width="2" height="2"/><rect class="cls-11" x="103.69" y="35.81" width="2" height="2"/><rect class="cls-11" x="95.69" y="35.81" width="2" height="2"/><rect class="cls-11" x="95.5" y="31.78" width="2" height="2"/><rect class="cls-7" x="102.88" y="69.34" width="3.87" height="3.87"/><rect class="cls-8" x="98.69" y="57.34" width="12" height="12"/><line class="cls-9" x1="98.69" y1="73.21" x2="110.69" y2="73.21"/><rect class="cls-11" x="103.69" y="65.9" width="2" height="2"/><rect class="cls-9" x="15.97" y="39.01" width="12" height="20"/><line class="cls-9" x1="16.03" y1="46.01" x2="28.03" y2="46.01"/><line class="cls-8" x1="20.69" y1="42.63" x2="25.92" y2="42.63"/><line class="cls-9" x1="15.97" y1="52.01" x2="27.97" y2="52.01"/><rect class="cls-10" x="18" y="41.63" width="2" height="2"/><line class="cls-8" x1="20.69" y1="49.01" x2="25.92" y2="49.01"/><rect class="cls-10" x="18" y="48.01" width="2" height="2"/><line class="cls-8" x1="20.69" y1="55.59" x2="25.92" y2="55.59"/><rect class="cls-10" x="18" y="54.59" width="2" height="2"/></g></svg>