<?xml version="1.0" encoding="utf-8"?>
<!-- Generator: Adobe Illustrator 27.2.0, SVG Export Plug-In . SVG Version: 6.00 Build 0)  -->
<svg version="1.1" id="MELKUNIE_LOGO" xmlns="http://www.w3.org/2000/svg" xmlns:xlink="http://www.w3.org/1999/xlink" x="0px"
	 y="0px" viewBox="0 0 1060.86 206.25" style="enable-background:new 0 0 1060.86 206.25;" xml:space="preserve">
<style type="text/css">
	.st0{fill:#FFFFFF;}
</style>
<path class="st0" d="M170.88,113.43c0-21.37-7.72-29.08-21.82-29.05c-4.44-0.01-25.43,2.24-25.43,34.15l-0.02,81.27
	c0,1.53-1.22,2.74-2.73,2.75l-32.68,0c-1.5,0.01-2.74-1.22-2.74-2.74l0-86.34c0-21.39-7.78-29.07-21.86-29.07
	c-4.45-0.01-25.44,2.23-25.45,34.18l0,81.2c0,1.52-1.23,2.77-2.75,2.76l-32.67,0c-1.52,0-2.74-1.23-2.74-2.74L0,59.61
	c0-1.5,1.23-2.76,2.74-2.75h11.7c11.44-0.01,20.81,9.18,21.79,20.37c0,0,0,0.03,0,0.05c7.91-14.47,23.25-24.23,40.87-24.25
	c19.14,0,34.1,8.23,41.05,24.17c8.66-14.48,24.45-24.19,42.56-24.17c28.43-0.02,48.3,17,48.29,49.61l0.04,97.15
	c0,1.52-1.22,2.76-2.73,2.75h-13.55c-12.08,0-21.86-8.99-21.86-21.1L170.88,113.43z M261.94,139.88
	c0.01,19.62,10.59,35.51,30.22,35.51c7.84-0.02,15.55,0.41,29.39-8.05c9.09-5.54,18.06-4.4,24.7,3.22l6.81,9.22
	c0.92,1.2,0.73,2.95-0.49,3.84c-20.24,14.67-38.66,22.6-60.75,22.62c-40.32-0.02-68.36-29.51-68.37-79.64
	c0-40.23,30.77-73.56,68.72-73.57c37.97-0.01,69.06,33.96,69.06,74.18c0,8.01-0.33,9.91-0.33,9.91c0,1.5-1.23,2.74-2.74,2.76
	L261.94,139.88z M261.94,114.09l60.46-0.03c0-17.15-13.53-31.04-30.22-31.05C275.48,83.02,261.94,96.92,261.94,114.09z
	 M961.57,139.88c0.01,19.62,10.59,35.51,30.22,35.51c7.84-0.02,15.55,0.41,29.39-8.05c9.09-5.54,18.06-4.4,24.7,3.22l6.81,9.22
	c0.92,1.2,0.73,2.95-0.49,3.84c-20.24,14.67-38.66,22.6-60.75,22.62c-40.32-0.02-68.36-29.51-68.37-79.64
	c0-40.23,30.77-73.56,68.72-73.57c37.97-0.01,69.06,33.96,69.06,74.18c0,8.01-0.33,9.91-0.33,9.91c0,1.5-1.23,2.74-2.74,2.76
	L961.57,139.88z M961.58,114.09l60.46-0.03c0-17.15-13.53-31.04-30.22-31.05C975.12,83.02,961.57,96.92,961.58,114.09z
	 M413.79,21.89C413.79,9.78,404,0.02,391.91,0h-13.54c-1.52,0.01-2.74,1.23-2.73,2.74l0,197.04c-0.01,1.54,1.22,2.75,2.73,2.76
	h32.69c1.5,0,2.74-1.25,2.73-2.76L413.79,21.89z M908.97,59.61c0.01-1.52-1.24-2.73-2.75-2.75h-32.68c-1.52,0-2.73,1.23-2.73,2.75
	v140.19c0,1.52,1.24,2.74,2.75,2.73l32.68,0c1.5-0.01,2.73-1.25,2.74-2.75V59.61z M572.09,200.63l-56.42-69.73l33.17-41
	c7.63-9.4,6.16-23.18-3.23-30.79l-8.25-6.68c-1.16-0.97-2.9-0.76-3.84,0.4l-60.84,75.18l0.01-125.3c-0.01-1.5-1.23-2.71-2.74-2.72
	l-32.69,0c-1.5,0.01-2.73,1.22-2.73,2.74l0,83.93l92.96,114.85c0.53,0.65,1.24,1,2.01,1.02l41.62,0c0.66-0.02,1.21-0.56,1.2-1.23
	C572.33,201.05,572.22,200.82,572.09,200.63z M699.78,149.41c0,31.39-19.38,56.84-65.05,56.84c-45.67,0.03-65.06-25.42-65.05-56.78
	l-0.01-89.87c-0.01-1.51,1.24-2.73,2.75-2.73l13.53,0c12.08-0.01,21.87,9.79,21.89,21.93l-0.02,70.99
	c0.02,14.85,12.05,25.63,26.92,25.63c14.85,0,26.88-10.78,26.89-25.63l-0.01-90.17c0.02-1.51,1.23-2.74,2.75-2.75l32.67,0
	c1.52,0.01,2.74,1.21,2.75,2.75L699.78,149.41z M850.05,118.55c0,0,0.99-26.95-5.81-41.23c-8.19-17.17-21.85-24.29-46.6-24.28
	c-17.62,0.01-32.94,9.8-40.87,24.26c0-0.04,0-0.04,0-0.04c-0.96-11.18-10.33-20.38-21.78-20.39l-11.7,0c-1.52,0-2.74,1.22-2.75,2.75
	l0.02,140.18c0,1.53,1.22,2.74,2.74,2.76l32.68-0.01c1.5-0.01,2.73-1.24,2.72-2.75l0.01-81.22c0-31.94,20.98-34.18,25.44-34.18
	c16.54,0,27.75,7.68,27.75,29.07l0.01,67.19c-0.01,12.1,9.79,21.88,21.87,21.89h13.56c1.5,0,2.72-1.25,2.72-2.74L850.05,118.55z
	 M889.88,0c-12.05,0.02-21.87,9.84-21.84,21.87c0.02,12.05,9.85,21.84,21.87,21.82c12.04-0.02,21.83-9.83,21.83-21.88
	C911.73,9.78,901.91-0.02,889.88,0z M889.92,40.2c-10.16,0.01-18.37-8.18-18.37-18.32c-0.03-10.15,8.17-18.36,18.31-18.37
	c10.16-0.01,18.37,8.17,18.36,18.32C908.24,31.96,900.06,40.18,889.92,40.2z M898.98,17.02c0-4.81-2.73-6.33-8.81-6.33l-8.01,0.01
	v22.23h3.86v-9.84l2.77,0l5.47,9.84h4.31l-5.96-10.16l1.16-0.07C897.65,22.53,898.98,20.04,898.98,17.02z M891.23,20.26H886l0-6.76
	h4.07c1.94,0,5.16-0.01,5.16,3.11C895.22,19.84,893.1,20.26,891.23,20.26z"/>
</svg>
